<svg viewBox="0 0 24 24" fill="none" xmlns="http://www.w3.org/2000/svg">
<path id="Icon" d="M3.1173 17.0694L2.37031 16.5674H2.37031L3.1173 17.0694ZM4.4095 12.9278L3.5095 12.9181V12.9278H4.4095ZM4.43662 10.4238L5.33662 10.4335V10.4238H4.43662ZM20.6674 17.0895L21.4239 16.6019L21.4239 16.6019L20.6674 17.0895ZM19.4238 12.9278L18.5238 12.9175V12.9278H19.4238ZM19.4509 10.5479L20.3509 10.5581V10.5479H19.4509ZM8.92593 21.1C8.42887 21.1 8.02593 21.5029 8.02593 22C8.02593 22.4971 8.42887 22.9 8.92593 22.9V21.1ZM14.8519 22.9C15.3489 22.9 15.7519 22.4971 15.7519 22C15.7519 21.5029 15.3489 21.1 14.8519 21.1V22.9ZM3.8643 17.5714C4.59426 16.4852 5.3095 14.8781 5.3095 12.9278H3.5095C3.5095 14.4337 2.95543 15.6967 2.37031 16.5674L3.8643 17.5714ZM5.30945 12.9376L5.33657 10.4335L3.53668 10.414L3.50956 12.9181L5.30945 12.9376ZM21.4239 16.6019C20.8627 15.7311 20.3238 14.4552 20.3238 12.9278H18.5238C18.5238 14.8803 19.2105 16.4902 19.9109 17.577L21.4239 16.6019ZM20.3237 12.9381L20.3509 10.5581L18.551 10.5376L18.5239 12.9175L20.3237 12.9381ZM20.3509 10.5479C20.3509 5.43678 16.6628 1.1 11.8889 1.1V2.9C15.4677 2.9 18.5509 6.21724 18.5509 10.5479H20.3509ZM20.2148 19.15C20.9809 19.15 21.4048 18.555 21.559 18.1454C21.721 17.7154 21.7528 17.1123 21.4239 16.6019L19.9109 17.577C19.8947 17.5519 19.8864 17.5306 19.8823 17.5168C19.8783 17.5032 19.8778 17.4955 19.8778 17.4945C19.8777 17.4934 19.8779 17.4957 19.8772 17.5005C19.8764 17.5052 19.8752 17.5091 19.8745 17.5111C19.8709 17.5206 19.8776 17.494 19.9217 17.4549C19.9728 17.4095 20.0754 17.35 20.2148 17.35V19.15ZM5.33662 10.4238C5.33662 6.16169 8.37066 2.9 11.8889 2.9V1.1C7.17558 1.1 3.53662 5.38122 3.53662 10.4238H5.33662ZM3.56404 17.35C3.70661 17.35 3.81024 17.4119 3.86036 17.4572C3.90335 17.4961 3.90854 17.5212 3.90412 17.509C3.90298 17.5059 3.90158 17.5009 3.90071 17.4951C3.89984 17.4893 3.90003 17.4862 3.89999 17.4868C3.89996 17.4874 3.89948 17.4951 3.89514 17.509C3.89072 17.5232 3.88174 17.5454 3.8643 17.5714L2.37031 16.5674C2.02598 17.0798 2.05512 17.6933 2.21335 18.1266C2.36346 18.5375 2.78582 19.15 3.56404 19.15V17.35ZM20.2148 17.35H3.56404V19.15H20.2148V17.35ZM8.92593 22.9H14.8519V21.1H8.92593V22.9Z" fill="black"/>
<path id="Ellipse 19" d="M18 7.9C19.6016 7.9 20.9 6.60163 20.9 5C20.9 3.39837 19.6016 2.1 18 2.1C16.3984 2.1 15.1 3.39837 15.1 5C15.1 6.60163 16.3984 7.9 18 7.9Z" fill="#0372FF" stroke="black" stroke-width="1.8"/>
</svg>
