<svg xmlns="http://www.w3.org/2000/svg"  viewBox="0 0 1080 1080">
  <path  d="M923.18 470.79c-13.34-12.78-25.94-24.85-33.48-35.74-8.08-11.67-17.38-26.19-28.13-43-51.24-80.04-128.67-201.01-222.11-238.37-126.12-50.43-291.7-9.97-354.33 86.59-28.55 44.02-34.38 84.18-31.91 115.47-8.76-.42-17.34-.35-25.37.24-14.17-1.38-29.13-.78-43.99 3.28-32.14 8.77-57.06 30.95-74.1 65.92-29.04 59.63-27.16 125.97 5.03 177.46 25.92 41.46 68.46 66.96 114.84 69.35 19.93 36.75 73.6 113.08 175.87 113.08 57.82 0 103.85-18.66 136.82-55.47 70.51-78.75 56.74-211.53 56.12-217.14a6.604 6.604 0 0 0-6.26-5.87 6.624 6.624 0 0 0-6.77 5.27c-2.84 13.93-79.02 77.91-172.15 73.42-88.95-4.29-143.1-71.03-143.63-71.71a6.616 6.616 0 0 0-5.01-2.49c-1.92-.1-3.83.77-5.12 2.25-31.16 35.53-39.47 76.19-40.93 104.17-23.83-5.06-44.74-20.05-59-42.85-22.48-35.95-23.35-83.18-2.33-126.34 6.77-13.91 14.92-24 24.58-30.62.37 1.17.65 2.31 1.07 3.5 10.84 31.24 38 66.16 66.98 69.35.69.08 1.41.11 2.15.11 19.52 0 55.25-25.9 76.4-50.44 16.46-19.1 23.79-36.24 20.62-48.25-3.8-14.44-26.68-23.27-41.47-27.55-4.31-22.45-3.49-56.32 21.86-95.41 48.29-74.46 189.43-106.68 290.43-66.29 77.71 31.07 149.64 143.45 197.24 217.81 11.04 17.24 20.57 32.14 29.19 44.59 10.58 15.28 25.05 29.14 40.38 43.81 25.67 24.59 52.22 50.02 51.26 75.19-.68 17.87-15.04 38.45-42.69 61.16-33.1 27.19-68.57 34.29-102.59 20.52-63.4-25.66-109.82-115.77-124.17-241.04-1.66-14.49-14.84-24.92-29.23-23.22-14.48 1.66-24.88 14.75-23.22 29.23 12.56 109.7 47.61 195.17 99.01 245.4-21.67 29.52-83.68 105.2-162.02 123.84-62.96 15-99.99-5.28-101.27-5.99-12.54-7.46-28.74-3.34-36.19 9.19-7.45 12.53-3.34 28.73 9.19 36.19 1.68 1 32.43 18.84 83.94 18.84 16.75 0 35.7-1.89 56.56-6.85 95.56-22.74 166.62-108.64 192.29-143.77 5 2.65 10.1 5.04 15.3 7.14 17.83 7.21 36.02 10.78 54.17 10.78 35.06 0 69.94-13.33 101.75-39.45 40.38-33.17 60.64-65.86 61.94-99.95 1.86-48.9-36.6-85.73-67.51-115.33l-.01-.01Z"/>
  <path  d="M514.07 282.76c-29.26-9.32-63.72 9.8-76.86 42.62-6.93 17.33-6.83 35.93.3 51.03 5.92 12.54 16.25 21.7 29.09 25.8 5.02 1.6 10.19 2.36 15.37 2.36 25.07 0 50.6-17.79 61.49-44.99 6.93-17.33 6.82-35.93-.3-51.03-5.92-12.54-16.25-21.7-29.09-25.8v.01Z"/>
  <path fill="#fff" d="M326.13 650.64s-146.28 27.39-146.28 162.29c0 134.9 130.97 116.91 161.19 89.93 30.22-26.98 45.33-112.41 90.67-143.89 45.33-31.47 80.59-22.48 85.63-53.96 5.04-31.47-155.75-77.27-191.21-54.37Z"/>
  <path  d="M276.94 948.11c-18.69 0-37.79-3.33-54.86-10.97-25.63-11.48-68.62-42.87-68.62-124.21 0-121.16 104.74-174.86 163.7-187.41 45.91-21.58 157.22 9.47 198.48 36.39 26.45 17.25 29.7 35.23 27.78 47.28-5.41 33.78-31.63 43.03-52.69 50.46-13.06 4.61-27.87 9.84-43.96 21.01-19.76 13.72-34.4 45.98-47.31 74.45-12.14 26.78-23.61 52.07-40.83 67.44-17.05 15.22-48.74 25.56-81.69 25.56Zm54.13-271.54c-5.1.99-124.81 25.45-124.81 136.35 0 39.33 12.59 64.91 37.4 76.03 30.38 13.6 70.35 2.66 79.8-5.79 8.9-7.95 18.57-29.26 27.92-49.86 15.73-34.68 33.56-73.99 65.28-96.01 21.93-15.22 41.91-22.27 56.49-27.42 3.91-1.38 8.64-3.05 12.31-4.6-11.31-6.92-34-17.1-66.4-25.29-46.33-11.72-73.55-9.73-78.85-7.01-2.86 1.85-5.81 2.98-9.15 3.61l.01-.01Z"/>
</svg>