<svg width="31" height="29" viewBox="0 0 31 29" fill="none" xmlns="http://www.w3.org/2000/svg">
<g id="footprint">
<path id="Union" fill-rule="evenodd" clip-rule="evenodd" d="M15.0838 12.4732C15.7667 12.4732 16.3204 11.9196 16.3204 11.2366C16.3204 10.5537 15.7667 10 15.0838 10C14.4008 10 13.8471 10.5537 13.8471 11.2366C13.8471 11.9196 14.4008 12.4732 15.0838 12.4732ZM15.1525 13.8471C16.87 13.8471 20.5112 16.8013 19.2402 18.0722C17.9692 19.3432 12.2671 19.2745 11.0648 18.0722C9.86254 16.87 13.4006 13.8471 15.1525 13.8471ZM12.4732 13.2633C12.4732 13.9463 11.9196 14.4999 11.2366 14.4999C10.5537 14.4999 10 13.9463 10 13.2633C10 12.5804 10.5537 12.0267 11.2366 12.0267C11.9196 12.0267 12.4732 12.5804 12.4732 13.2633ZM18.931 14.4999C19.614 14.4999 20.1676 13.9463 20.1676 13.2633C20.1676 12.5804 19.614 12.0267 18.931 12.0267C18.2481 12.0267 17.6944 12.5804 17.6944 13.2633C17.6944 13.9463 18.2481 14.4999 18.931 14.4999Z" fill="white"/>
</g>
</svg>
