<svg viewBox="0 0 11 9" fill="none" xmlns="http://www.w3.org/2000/svg">
<path id="Union" fill-rule="evenodd" clip-rule="evenodd" d="M5.08375 2.47323C5.76671 2.47323 6.32036 1.91958 6.32036 1.23661C6.32036 0.553651 5.76671 0 5.08375 0C4.40079 0 3.84714 0.553651 3.84714 1.23661C3.84714 1.91958 4.40079 2.47323 5.08375 2.47323ZM5.1525 3.84714C6.87002 3.84714 10.5112 6.80127 9.2402 8.07223C7.96923 9.3432 2.26707 9.2745 1.06481 8.07223C-0.137456 6.86997 3.40063 3.84714 5.1525 3.84714ZM2.47323 3.26332C2.47323 3.94628 1.91958 4.49993 1.23661 4.49993C0.553651 4.49993 0 3.94628 0 3.26332C0 2.58035 0.553651 2.0267 1.23661 2.0267C1.91958 2.0267 2.47323 2.58035 2.47323 3.26332ZM8.93103 4.49993C9.61399 4.49993 10.1676 3.94628 10.1676 3.26332C10.1676 2.58035 9.61399 2.0267 8.93103 2.0267C8.24806 2.0267 7.69441 2.58035 7.69441 3.26332C7.69441 3.94628 8.24806 4.49993 8.93103 4.49993Z" fill="white"/>
</svg>
