<svg viewBox="0 0 24 24" fill="none" xmlns="http://www.w3.org/2000/svg">
<path d="M11.7195 1C5.24784 1 0 6.24692 0 12.7195C0 17.8976 3.35799 22.2905 8.01455 23.8402C8.60023 23.9487 8.81531 23.586 8.81531 23.2764C8.81531 22.997 8.80437 22.0737 8.79941 21.0945C5.53893 21.8034 4.85096 19.7117 4.85096 19.7117C4.31785 18.3571 3.54973 17.997 3.54973 17.997C2.48646 17.2696 3.62988 17.2844 3.62988 17.2844C4.80675 17.3672 5.42643 18.4922 5.42643 18.4922C6.47168 20.2839 8.16805 19.7659 8.83682 19.4665C8.94197 18.7089 9.24574 18.192 9.58086 17.8993C6.97785 17.6029 4.24138 16.598 4.24138 12.1075C4.24138 10.828 4.69921 9.7825 5.44895 8.96179C5.32726 8.66656 4.92614 7.47462 5.56246 5.86033C5.56246 5.86033 6.54659 5.54534 8.78617 7.06165C9.72094 6.8019 10.7235 6.67175 11.7195 6.66734C12.7155 6.67175 13.7188 6.8019 14.6554 7.06165C16.8924 5.54534 17.8751 5.86033 17.8751 5.86033C18.513 7.47462 18.1117 8.66656 17.99 8.96179C18.7414 9.7825 19.1961 10.8279 19.1961 12.1075C19.1961 16.6087 16.4545 17.5999 13.8449 17.89C14.2652 18.2537 14.6397 18.9669 14.6397 20.0602C14.6397 21.6283 14.6261 22.8904 14.6261 23.2764C14.6261 23.5883 14.8371 23.9537 15.4312 23.8387C20.0852 22.2872 23.439 17.8959 23.439 12.7195C23.439 6.24692 18.1918 1 11.7195 1Z" fill="#24292F"/>
<path d="M4.38909 17.6943C4.36335 17.7525 4.27162 17.77 4.18825 17.7301C4.10323 17.6919 4.05544 17.6124 4.08301 17.554C4.10829 17.4941 4.20002 17.4773 4.28486 17.5176C4.37006 17.5557 4.41859 17.6359 4.38909 17.6943ZM4.96557 18.2087C4.90969 18.2605 4.8004 18.2364 4.72623 18.1546C4.64957 18.0728 4.63523 17.9636 4.69194 17.911C4.74957 17.8592 4.85555 17.8834 4.93239 17.9652C5.00905 18.0478 5.02394 18.1564 4.96548 18.2088M5.36108 18.8668C5.2892 18.9167 5.17174 18.8699 5.09922 18.7657C5.02743 18.6616 5.02743 18.5365 5.10078 18.4865C5.17358 18.4364 5.2892 18.4814 5.36273 18.5848C5.43443 18.6908 5.43443 18.8158 5.36099 18.8669M6.02985 19.629C5.9656 19.6998 5.82883 19.6809 5.72864 19.5842C5.62625 19.4897 5.59767 19.3556 5.6621 19.2847C5.72708 19.2138 5.86468 19.2337 5.9656 19.3296C6.06735 19.4239 6.09842 19.559 6.02994 19.629M6.89421 19.8864C6.86599 19.9781 6.73419 20.0199 6.60146 19.9809C6.46892 19.9407 6.38216 19.8332 6.4089 19.7404C6.43648 19.6481 6.56883 19.6046 6.70257 19.6463C6.83492 19.6863 6.92188 19.793 6.8943 19.8864M7.87806 19.9955C7.88137 20.0922 7.76877 20.1723 7.62943 20.1741C7.48926 20.1771 7.37593 20.0989 7.37446 20.0039C7.37446 19.9063 7.48448 19.8268 7.62456 19.8245C7.7639 19.8218 7.87806 19.8995 7.87806 19.9955ZM8.84444 19.9585C8.86117 20.0528 8.7643 20.1496 8.62596 20.1754C8.48993 20.2002 8.36401 20.142 8.34664 20.0485C8.32973 19.9518 8.42844 19.8551 8.5642 19.83C8.70281 19.8059 8.8268 19.8626 8.84444 19.9585Z" fill="#24292F"/>
</svg>