<svg xmlns="http://www.w3.org/2000/svg" viewBox="0 0 24 24">
  <path d="M13.453 15.595a.188.188 0 0 0-.264 0l-2.724 2.724c-1.26 1.26-3.389 1.394-4.781 0-1.395-1.395-1.261-3.52 0-4.781l2.723-2.724a.188.188 0 0 0 0-.265l-.933-.933a.188.188 0 0 0-.264 0L4.486 12.34a5.067 5.067 0 0 0 0 7.172 5.07 5.07 0 0 0 7.172 0l2.723-2.724a.188.188 0 0 0 0-.265l-.928-.928Zm6.061-11.11a5.067 5.067 0 0 0-7.172 0L9.617 7.21a.188.188 0 0 0 0 .265l.93.93a.188.188 0 0 0 .265 0l2.723-2.723c1.261-1.26 3.39-1.394 4.782 0 1.394 1.395 1.26 3.52 0 4.782l-2.724 2.723a.188.188 0 0 0 0 .265l.933.932a.188.188 0 0 0 .265 0l2.723-2.723a5.074 5.074 0 0 0 0-7.174ZM14.3 8.726a.188.188 0 0 0-.264 0l-5.309 5.307a.188.188 0 0 0 0 .265l.928.928a.188.188 0 0 0 .265 0l5.306-5.306a.188.188 0 0 0 0-.265l-.926-.928Z"/>
</svg>