<svg viewBox="0 0 24 24" fill="none" xmlns="http://www.w3.org/2000/svg">
<path id="Icon" d="M9.55858 8.06396L12.065 2.98537L14.5714 8.06396L15.244 7.73203L14.5714 8.06396C14.7627 8.45152 15.1325 8.72015 15.5602 8.7823L21.1647 9.59669L17.1092 13.5498C16.7997 13.8515 16.6585 14.2861 16.7316 14.7121L17.6889 20.294L12.6761 17.6586C12.2935 17.4575 11.8365 17.4575 11.454 17.6586L6.44109 20.294L7.39847 14.7121C7.47153 14.2861 7.3303 13.8515 7.02081 13.5498L2.96532 9.59669L8.56987 8.7823C8.99757 8.72015 9.36731 8.45152 9.55858 8.06396ZM6.10595 20.4702C6.10608 20.4701 6.1062 20.4701 6.10633 20.47L6.10595 20.4702ZM2.69418 9.33239C2.69425 9.33246 2.69432 9.33253 2.6944 9.3326L2.69418 9.33239L2.56375 9.46621L2.69418 9.33239Z" stroke="currentColor" stroke-width="1.5" stroke-linejoin="round"/>
</svg>
