<svg viewBox="0 0 24 24" fill="none" xmlns="http://www.w3.org/2000/svg">
<path id="Icon" d="M11.56 2.31391C11.7666 1.89536 12.3634 1.89536 12.57 2.31391L15.244 7.73203C15.326 7.89824 15.4846 8.01344 15.668 8.04009L21.6473 8.90893C22.1092 8.97604 22.2936 9.54367 21.9594 9.86946L17.6327 14.0869C17.5 14.2163 17.4394 14.4026 17.4708 14.5853L18.4921 20.5404C18.571 21.0004 18.0882 21.3513 17.6751 21.1341L12.3271 18.3224C12.163 18.2362 11.967 18.2362 11.803 18.3224L6.45496 21.1341C6.04183 21.3513 5.55898 21.0004 5.63788 20.5404L6.65926 14.5853C6.69059 14.4026 6.63003 14.2163 6.4973 14.0869L2.17067 9.86946C1.83645 9.54367 2.02088 8.97604 2.48277 8.90893L8.46203 8.04009C8.64544 8.01344 8.804 7.89824 8.88603 7.73203L11.56 2.31391Z" fill="currentColor"/>
</svg>
