<svg xmlns="http://www.w3.org/2000/svg" fill="none" viewBox="0 0 24 24">
  <path stroke="currentColor" stroke-width="1.8" d="M6.4 7.5a4.6 4.6 0 1 1 9.2 0 4.6 4.6 0 0 1-9.2 0ZM2.9 19A4.1 4.1 0 0 1 7 14.9h8a4.1 4.1 0 0 1 4.1 4.1v2.1H2.9V19Z"/>
  <path fill="#fff" fill-rule="evenodd" d="M18.99 10.41a1.137 1.137 0 0 1 1.59-.156l.884.695c.53.324.695 1.013.367 1.54-.017.027-4.866 6.16-4.866 6.16a.863.863 0 0 1-.668.327L14.441 19l-.419-1.79a.848.848 0 0 1 .162-.72l4.806-6.08Zm-.898 1.138 2.782 2.16-2.782-2.16Z" clip-rule="evenodd"/>
  <path stroke="currentColor" stroke-linecap="round" stroke-linejoin="round" stroke-width="1.5" d="m18.092 11.548 2.782 2.16M18.99 10.41a1.137 1.137 0 0 1 1.59-.156l.884.695c.53.324.695 1.013.367 1.54-.017.027-4.866 6.16-4.866 6.16a.863.863 0 0 1-.668.327L14.441 19l-.419-1.79a.848.848 0 0 1 .162-.72l4.806-6.08Z"/>
</svg>