<svg xmlns="http://www.w3.org/2000/svg" fill="none" viewBox="0 0 24 24">
  <path stroke="#000" stroke-linecap="square" stroke-linejoin="round" stroke-width="1.5" d="m18.116 18.15 3.85 3.85M20.75 11.375a9.375 9.375 0 1 1-18.75 0 9.375 9.375 0 0 1 18.75 0Z"/>
  <path stroke="#000" stroke-width="1.5" d="M16.327 15.2v1.05H6.75V15.2c0-.59.24-1.16.675-1.584a2.367 2.367 0 0 1 1.652-.666H14c.623 0 1.217.242 1.652.666.435.423.675.994.675 1.584ZM8.904 8.3c0-.67.273-1.317.765-1.796a2.68 2.68 0 0 1 1.87-.754 2.68 2.68 0 0 1 1.87.754c.491.48.764 1.126.764 1.796a2.51 2.51 0 0 1-.765 1.796 2.68 2.68 0 0 1-1.87.754 2.68 2.68 0 0 1-1.87-.753A2.509 2.509 0 0 1 8.905 8.3Z"/>
</svg>