<svg viewBox="0 0 24 24" fill="none" xmlns="http://www.w3.org/2000/svg">
<path id="Icon_2" d="M8.99943 16.6L8.99943 18.7C8.99943 19.257 9.22253 19.7911 9.61967 20.185C10.0168 20.5788 10.5554 20.8 11.1171 20.8L18.5288 20.8C19.0905 20.8 19.6291 20.5788 20.0262 20.185C20.4234 19.7911 20.6465 19.257 20.6465 18.7L20.6465 6.10005C20.6465 5.5431 20.4234 5.00895 20.0262 4.61513C19.6291 4.2213 19.0905 4.00005 18.5288 4.00005L11.1171 4.00005C10.5554 4.00005 10.0168 4.2213 9.61967 4.61512C9.22254 5.00895 8.99943 5.54309 8.99943 6.10005L8.99943 8.20005" stroke="currentColor" stroke-width="1.8" stroke-linecap="round" stroke-linejoin="round"/>
<path id="Icon_3" d="M3 12.15H15.7059M15.7059 12.15L12.5294 9M15.7059 12.15L12.5294 15.3" stroke="currentColor" stroke-width="1.8" stroke-linecap="round" stroke-linejoin="round"/>
</svg>
