<svg viewBox="0 0 24 24" fill="none" xmlns="http://www.w3.org/2000/svg">
<path id="Icon" d="M14.6471 8.2V6.1C14.6471 5.54305 14.424 5.0089 14.0268 4.61508C13.6297 4.22125 13.091 4 12.5294 4H5.11765C4.55601 4 4.01738 4.22125 3.62024 4.61508C3.22311 5.0089 3 5.54305 3 6.1V18.7C3 19.257 3.22311 19.7911 3.62024 20.1849C4.01738 20.5787 4.55601 20.8 5.11765 20.8H12.5294C13.091 20.8 13.6297 20.5787 14.0268 20.1849C14.424 19.7911 14.6471 19.257 14.6471 18.7V16.6M8.29412 12.4H21M21 12.4L17.8235 9.25M21 12.4L17.8235 15.55" stroke="currentColor" stroke-width="1.8" stroke-linecap="round" stroke-linejoin="round"/>
</svg>
